<svg width="90" height="100" viewBox="0 0 90 100" fill="none" xmlns="http://www.w3.org/2000/svg">
<path d="M69.1831 72.2743C69.3671 71.3274 69.3451 70.4372 69.1201 69.6C70.5231 69.5655 71.9301 69.508 73.3361 69.423H73.3511C75.4321 69.2673 77.1571 68.5089 78.5261 67.1469C79.9411 65.7442 80.5761 64.1133 80.4321 62.2513C80.3211 60.7823 79.7471 59.5035 78.7121 58.4115C79.4981 58.3159 80.0301 58.2186 80.3081 58.1239L80.3391 58.1106C82.5331 57.3867 84.2121 56.1345 85.3741 54.354L85.3901 54.3407C86.6681 52.4133 86.7551 50.3257 85.6541 48.0735V48.0885C84.6271 45.7982 82.4011 44.4089 78.9751 43.9204H79.0061C78.5061 43.8354 77.9531 43.7726 77.3491 43.7274C77.4951 43.5248 77.6291 43.3089 77.7511 43.0823L77.7671 43.0549C78.6171 41.3965 78.7141 39.7009 78.0621 37.9681C78.0561 37.9575 78.0511 37.9434 78.0451 37.9274C77.3361 36.2 76.0861 34.9239 74.2961 34.1018H74.3121C72.7511 33.3168 70.5671 33.0381 67.7581 33.2655V33.2513C65.7181 33.3982 57.2641 35.0381 42.3941 38.1735C42.4361 38.1097 42.4771 38.0451 42.5181 37.9814V37.9956C43.5901 36.3876 44.4111 34.6195 44.9811 32.6885L44.9661 32.7027C45.6451 30.5478 45.4061 28.2487 44.2531 25.8071C42.9131 22.9089 40.4041 21.6646 36.7221 22.077H36.7071C33.1611 22.3858 30.8691 24.4655 29.8281 28.3159C29.1731 30.7708 28.5221 32.3974 27.8751 33.1974L27.8611 33.2115C27.1441 33.9319 25.9711 34.7 24.3431 35.5151C24.3331 35.5186 24.3221 35.523 24.3121 35.5283C21.9831 36.6522 20.1701 38.3619 18.8741 40.6566V40.6425C18.4811 41.3195 18.1351 42.0133 17.8351 42.7266C16.5441 41.9858 15.4181 41.6513 14.4581 41.7266C11.2541 41.6142 8.69104 43.292 6.77304 46.7584L6.78804 46.7443C5.43704 49.1053 4.55904 51.7239 4.15404 54.6018V54.6159C3.76004 57.5212 4.12204 60.4372 5.23804 63.3637L5.25304 63.3779C6.50304 66.8274 9.64306 68.6248 14.6731 68.7664C14.9401 68.7743 15.1881 68.7425 15.4171 68.6717C19.6821 75.3124 28.2251 77.2088 41.0431 74.3619C47.5011 76.2221 54.1591 77.4425 61.0161 78.0221H61.0311C62.9721 78.1867 64.7391 77.7071 66.3301 76.5823C67.9251 75.4469 68.8751 74.0133 69.1831 72.2743ZM41.8201 70.5876C41.4141 70.4699 41.0061 70.4619 40.5961 70.5602C27.9991 73.4788 20.3201 71.0655 17.5571 63.3204C17.3901 62.8221 17.0511 62.4478 16.5341 62.1965C16.0151 61.9469 15.4721 61.8965 14.9081 62.0443C14.3441 62.1912 13.9201 62.492 13.6371 62.9496C13.3541 63.4089 13.2981 63.8885 13.4661 64.3885C13.5191 64.5584 13.5761 64.7274 13.6371 64.8965C11.4311 64.6124 9.98006 63.6947 9.28306 62.1407L9.29906 62.1549C8.39204 59.7832 8.09204 57.4195 8.40004 55.0646C8.73804 52.6416 9.47206 50.4336 10.6001 48.4443L10.6161 48.4292C11.6321 46.592 12.9121 45.6177 14.4591 45.508C15.0091 45.6018 15.7421 45.9858 16.6591 46.6611C16.6041 46.9389 16.5591 47.2177 16.5191 47.4965C16.4461 48.0142 16.5911 48.4788 16.9531 48.8947C17.3181 49.3062 17.7931 49.5443 18.3781 49.6089C18.9631 49.6735 19.4911 49.546 19.9591 49.2239C20.4231 48.9018 20.6921 48.4814 20.7651 47.9628C21.0431 45.9575 21.6831 44.0929 22.6861 42.3681V42.354C23.5731 40.7832 24.8081 39.608 26.3891 38.831L26.4201 38.8168C28.6481 37.7044 30.2281 36.6336 31.1611 35.6089L31.1771 35.5947C32.1771 34.5965 33.1121 32.4611 33.9821 29.1912C34.5101 27.2319 35.6001 26.1115 37.2511 25.8319H37.2671C38.7421 25.6637 39.7591 26.1389 40.3191 27.2584C41.0651 28.8372 41.2411 30.323 40.8451 31.7151L40.8291 31.7283C40.3671 33.3089 39.7011 34.7575 38.8301 36.0752V36.0894C37.7601 37.7115 37.1041 39.1469 36.8631 40.3947C36.8501 40.4319 36.8401 40.4681 36.8321 40.5044C36.8181 40.5752 36.8071 40.6496 36.8011 40.7239C36.7531 41.3274 36.7741 42.4566 36.8631 44.1124V44.1389C36.9181 45.4398 36.4631 47.0708 35.5001 49.0336H35.4851C34.5051 50.9531 32.6301 52.5124 29.8601 53.7089C29.3321 53.9398 28.9701 54.2991 28.7761 54.792C28.5811 55.2841 28.6121 55.7637 28.8691 56.2327C29.1281 56.7009 29.5371 57.0221 30.0931 57.1929C30.6461 57.3646 31.1881 57.3381 31.7201 57.1097C35.5621 55.4549 38.1291 53.2664 39.4201 50.5425H39.4051C40.7071 47.9106 41.2851 45.7124 41.1401 43.9469V43.9204C41.1081 43.3115 41.0861 42.7858 41.0771 42.3434C57.0161 38.9699 66.0341 37.2009 68.1291 37.0363V37.0221C69.9071 36.8841 71.2961 37.0248 72.2971 37.4469H72.3141C73.1121 37.8257 73.6751 38.4009 74.0021 39.1752C74.0081 39.1885 74.0131 39.2018 74.0191 39.215C74.2951 39.9814 74.2481 40.731 73.8791 41.4637C73.8741 41.4735 73.8681 41.4832 73.8631 41.492C73.4941 42.1646 72.9161 42.6301 72.1281 42.8912L72.1441 42.8761C70.8631 43.2867 69.5711 43.662 68.2701 44.0009C68.2311 44.0097 68.1901 44.0195 68.1471 44.0283C67.9441 44.0912 67.3801 44.2416 66.4581 44.4814C66.4111 44.4876 66.3641 44.4973 66.3181 44.5089C61.8471 45.6628 55.8821 46.7372 48.4221 47.731C47.8361 47.8071 47.3661 48.0531 47.0131 48.4708C46.6631 48.8947 46.5341 49.3655 46.6251 49.8841C46.7101 50.3973 46.9891 50.8089 47.4621 51.1195C47.9371 51.4265 48.4641 51.5416 49.0421 51.462C56.7121 50.4496 62.8531 49.3522 67.4641 48.1708C72.3091 47.4743 75.9081 47.3 78.2631 47.6496H78.2951C79.9941 47.8903 81.1361 48.531 81.7191 49.569V49.5823C82.2281 50.6221 82.2121 51.5867 81.6721 52.477L81.6881 52.4619C81.0381 53.4522 80.1031 54.1522 78.8831 54.5602C77.3231 54.9973 67.5721 55.592 49.6311 56.3434C49.6051 56.3416 49.5791 56.3416 49.5541 56.3434C48.9781 56.3646 48.4921 56.5655 48.0971 56.9469C47.6981 57.3292 47.5061 57.777 47.5241 58.2912C47.5451 58.808 47.7661 59.2469 48.1901 59.6071C48.6121 59.9628 49.1131 60.1372 49.6931 60.1274C49.7191 60.1274 49.7451 60.1274 49.7711 60.1274C64.1911 59.9266 71.7831 59.8088 72.5471 59.7717H72.5771C73.4951 59.7142 74.3011 59.9416 74.9941 60.4566L75.0101 60.4699C75.7091 61.0142 76.0911 61.692 76.1561 62.5009C76.2191 63.3088 75.9451 64.0168 75.3351 64.6257C74.7251 65.2336 73.9551 65.5708 73.0271 65.6398C71.5751 65.731 70.1241 65.7929 68.6731 65.8319C67.6451 65.8487 66.5851 65.8575 65.4971 65.8584C65.3951 65.8504 65.2921 65.8504 65.1871 65.8584C59.9381 65.8522 53.9121 65.5283 47.1051 64.885C46.5211 64.8301 46.0001 64.9673 45.5401 65.2965C45.0791 65.6221 44.8151 66.0442 44.7501 66.5575C44.6881 67.0752 44.8431 67.5354 45.2151 67.9416C45.5831 68.3496 46.0591 68.5841 46.6411 68.6416C53.3141 69.2735 59.2591 69.6062 64.4741 69.6425C64.4831 69.6558 64.4941 69.669 64.5051 69.6841C64.9581 70.2584 65.1131 70.9177 64.9701 71.6575V71.6726C64.8241 72.4575 64.3911 73.1053 63.6681 73.6177C62.9911 74.0991 62.2421 74.315 61.4221 74.2637C54.6861 73.6894 48.1521 72.4628 41.8201 70.5876Z" fill="black"/>
</svg>
