<svg width="90" height="100" viewBox="0 0 90 100" fill="none" xmlns="http://www.w3.org/2000/svg">
<path d="M57.0026 77.6299C59.0056 76.0886 59.9946 74.2379 59.9696 72.0806C59.9696 72.0237 59.9696 71.9668 59.9696 71.9099C62.5046 71.6014 64.8356 70.7686 66.9656 69.4094L66.9856 69.3917C70.2366 67.2548 71.8296 64.6797 71.7636 61.6672C71.7606 60.9463 71.6716 60.2432 71.4936 59.5597C71.7896 59.389 72.1046 59.2059 72.4366 59.013C72.4756 58.9819 72.5146 58.9543 72.5526 58.9268C74.6986 57.5926 75.7726 55.4574 75.7706 52.5197C75.8466 50.8814 75.1986 49.2139 73.8256 47.5188C74.4806 47.1828 75.1096 46.8121 75.7136 46.4059C76.0266 46.2103 76.3866 45.9588 76.7926 45.6521C76.9406 45.5383 77.0756 45.4121 77.1976 45.2743C77.2256 45.2406 77.2586 45.2006 77.2946 45.1543C80.4826 42.5614 82.0436 39.9846 81.9766 37.4308C82.1436 34.7863 80.6086 32.2228 77.3716 29.7383L77.3516 29.7223C72.0536 25.5054 65.3286 24.6717 57.1756 27.2219C56.9946 27.0468 56.8086 26.8699 56.6166 26.6903V26.7081C52.4706 22.8637 47.9096 20.9614 42.9346 21.0032C39.4216 20.9188 35.4256 22.4939 30.9486 25.7312L30.9286 25.749C28.2756 27.5703 26.0536 30.3899 24.2616 34.2103C23.1806 33.6974 22.0956 33.4637 21.0046 33.5081C17.0196 33.3686 13.8336 35.4628 11.4456 39.7952L11.4656 39.7774C9.78658 42.7508 8.69458 46.0228 8.19058 49.5926V49.6086C7.70258 53.2379 8.15158 56.8921 9.53958 60.5712L9.55958 60.589C11.0036 64.5979 14.4796 66.8174 19.9846 67.2521C20.5476 68.2343 21.2806 69.2628 22.1816 70.3357L22.2006 70.3534C25.3026 74.2868 30.5176 75.709 37.8476 74.6183C38.3846 75.1614 39.0016 75.7099 39.6986 76.2637V76.2814C42.7576 78.7206 45.9366 79.9019 49.2376 79.8272H49.2756C52.6546 79.7686 55.2176 79.0486 56.9646 77.6681C56.9746 77.6512 56.9886 77.6406 57.0026 77.6299ZM49.9306 59.2681C49.9686 59.2877 50.0066 59.3108 50.0456 59.3366C50.3036 59.4726 50.5606 59.6112 50.8166 59.7472C52.7366 60.7748 54.7596 61.5001 56.8856 61.9223C58.4356 62.2326 60.0286 62.3863 61.6646 62.3846C63.3286 62.3837 64.9216 62.1837 66.4436 61.7854C66.3336 63.2388 65.4656 64.501 63.8416 65.5712L63.8216 65.589C62.0026 66.7437 59.9606 67.3206 57.6936 67.3188C55.0056 67.3179 52.4996 66.6886 50.1776 65.4352L50.1976 65.4512C47.8366 64.1454 46.6226 62.4619 46.5556 60.3979C46.5546 59.5703 46.8496 58.9543 47.4416 58.549H47.4806C47.7396 58.4014 48.0286 58.2859 48.3476 58.2059C48.8306 58.5712 49.3586 58.9259 49.9306 59.2681ZM57.3296 49.1623C57.4366 49.1908 57.5396 49.213 57.6386 49.2308C57.9206 49.2761 58.2036 49.3214 58.4866 49.3668L58.3516 49.333C60.4556 49.7783 62.5766 49.9383 64.7106 49.8121H64.7296C66.0076 49.7463 67.2866 49.5819 68.5656 49.3152C69.7316 50.4326 70.3606 51.5001 70.4546 52.5179C70.4526 53.6343 70.1256 54.4841 69.4716 55.0708L69.4126 55.1223C69.3926 55.133 69.3746 55.1446 69.3546 55.157C68.9976 55.3614 68.6636 55.5623 68.3526 55.757H68.3336C67.9806 55.9792 67.6526 56.1801 67.3506 56.3561C67.3196 56.3703 67.2876 56.3872 67.2546 56.4077C67.1036 56.4601 66.9556 56.5286 66.8116 56.613C66.7076 56.6414 66.6046 56.6743 66.5026 56.7152C65.0046 57.3454 63.3926 57.6601 61.6656 57.6574C60.4256 57.6557 59.2176 57.5357 58.0426 57.2992C56.4706 56.9899 54.9736 56.4592 53.5526 55.7054C53.2966 55.5686 53.0396 55.4308 52.7816 55.2939C52.0976 54.8681 51.5196 54.4112 51.0476 53.9241V53.9419C50.0856 52.9241 49.6046 51.7659 49.6026 50.4637C49.6036 49.5846 49.9376 48.9339 50.6056 48.5117V48.4939C51.4656 48.069 52.5846 47.8583 53.9586 47.861C54.9256 48.3757 56.0496 48.8086 57.3296 49.1623ZM73.8646 33.301L73.8836 33.3188C75.6466 34.6681 76.5716 36.0157 76.6586 37.3597C76.5156 38.7686 75.4946 40.2352 73.5946 41.7623C73.5076 41.837 73.4246 41.9179 73.3446 42.0023C73.2766 42.0761 73.2116 42.1446 73.1526 42.2086C72.9766 42.3348 72.8166 42.4423 72.6716 42.5339C72.6396 42.5579 72.6076 42.581 72.5746 42.6023C71.5716 43.2877 70.4606 43.8361 69.2406 44.2477C68.8376 44.3517 68.4266 44.4548 68.0076 44.5552C66.8066 44.8512 65.6056 45.0272 64.4036 45.0868H64.3846C62.7736 45.1881 61.1736 45.0734 59.5856 44.7437C59.5406 44.7321 59.4946 44.7214 59.4506 44.7099C59.2186 44.6717 58.9866 44.6326 58.7566 44.5899C58.5266 44.5241 58.3006 44.4566 58.0826 44.3837C58.9686 43.9499 59.7386 43.3508 60.3946 42.5854C60.4056 42.5677 60.4176 42.5508 60.4346 42.5348C61.2886 41.5232 61.8416 40.3063 62.0906 38.8868C62.6196 39.0823 63.3906 39.3792 64.4036 39.7766C65.0816 40.0441 65.7616 40.061 66.4466 39.829C67.1266 39.5917 67.6146 39.1757 67.9106 38.5774C68.2126 37.9766 68.2316 37.3721 67.9696 36.7614C67.7016 36.1579 67.2336 35.7241 66.5626 35.461C64.2136 34.5339 62.7936 34.0423 62.3036 33.9872C62.2206 33.9783 62.1366 33.973 62.0536 33.9694C61.9536 33.9614 61.8576 33.9561 61.7646 33.9517C61.7506 33.9108 61.7386 33.8699 61.7256 33.8326C61.7196 33.8059 61.7126 33.7774 61.7056 33.7472C61.4216 32.9312 61.0166 32.109 60.4916 31.2797C65.8166 29.9606 70.2736 30.6334 73.8646 33.301ZM26.4596 67.5241L26.4396 67.5063C24.4256 65.0903 23.7326 63.1499 24.3576 61.6823C24.7026 61.1046 24.7676 60.5046 24.5506 59.8841C24.3366 59.2592 23.9066 58.7917 23.2596 58.4806C22.6116 58.1739 21.9366 58.117 21.2366 58.3099C20.5346 58.501 20.0076 58.8841 19.6566 59.4566C19.0586 60.3117 18.7116 61.2361 18.6166 62.2317C16.6336 61.7081 15.2846 60.6477 14.5696 59.045L14.5886 59.0628C13.4606 56.0797 13.0886 53.117 13.4706 50.1739V50.1561C13.8936 47.1543 14.8066 44.4023 16.2076 41.8992L16.2266 41.8832C17.4906 39.5872 19.0826 38.3703 21.0056 38.2343C21.4756 38.2903 21.9566 38.4841 22.4506 38.8166C22.0606 40.0183 21.7006 41.285 21.3716 42.6192C21.2176 43.2548 21.3396 43.8494 21.7376 44.4006C22.1316 44.9552 22.6836 45.3028 23.3946 45.4459C24.1106 45.5837 24.7786 45.4752 25.3986 45.1206C26.0206 44.7694 26.4126 44.2806 26.5736 43.6468C28.2776 36.7286 30.8406 31.9899 34.2626 29.4299L34.2826 29.4121C37.5566 27.0423 40.4416 25.8139 42.9346 25.7294C46.4906 25.7774 49.7656 27.1934 52.7626 29.9783C53.2886 30.4637 53.7656 30.9499 54.1886 31.4343C54.2016 31.4503 54.2136 31.4681 54.2266 31.485C54.2806 31.5517 54.3376 31.6148 54.4006 31.6734C55.4576 32.8708 56.1956 34.0423 56.6166 35.1846L56.5966 35.0992C56.7226 35.4948 56.8196 35.8886 56.8856 36.2806C56.8836 36.3117 56.8836 36.3392 56.8856 36.3668C56.9076 36.581 56.9216 36.8032 56.9246 37.0343C56.9236 38.133 56.6536 39.0414 56.1146 39.757L56.1526 39.7232C55.6886 40.2654 55.0336 40.5223 54.1876 40.4939C53.8006 40.4983 53.4276 40.4574 53.0696 40.3739L53.0116 40.3561H52.9916C52.1976 40.1161 51.4526 39.6814 50.7566 39.0557H50.7376C49.0256 37.549 47.7796 36.469 46.9986 35.8166C46.8906 35.5917 46.7356 35.3819 46.5366 35.1837C46.0806 34.7339 45.5156 34.477 44.8406 34.413C44.1626 34.3463 43.5466 34.4877 42.9906 34.8414C42.4396 35.1997 42.0926 35.6743 41.9496 36.2628C41.6716 37.1072 41.8196 38.2539 42.3926 39.7063L42.4126 39.741C42.6956 40.4272 42.8556 40.9294 42.8946 41.2477C42.8436 42.7197 42.1646 44.2441 40.8516 45.8219L40.8316 45.8379C39.5946 47.2814 38.3156 48.1223 36.9966 48.3561C36.2736 48.4423 35.6896 48.7454 35.2426 49.2637C34.7916 49.7828 34.6106 50.365 34.7036 51.0112C34.8006 51.6539 35.1406 52.173 35.7246 52.5703C36.3086 52.9703 36.9636 53.1312 37.6916 53.0494C40.0356 52.8539 42.2506 51.6726 44.3396 49.5046C44.3006 49.8139 44.2806 50.133 44.2806 50.4628C44.2806 51.821 44.5556 53.0939 45.1096 54.2832C44.9196 54.3792 44.7336 54.4832 44.5496 54.5917C42.3406 55.7872 41.2366 57.7214 41.2356 60.3979C41.2316 60.6592 41.2376 60.9161 41.2556 61.1686C39.5646 61.3721 38.1256 62.1366 36.9396 63.4646L36.9206 63.4814C35.6616 64.8281 35.0326 66.5286 35.0316 68.5863C35.0226 69.1001 35.0806 69.6139 35.2046 70.1277C31.2646 70.4023 28.3476 69.5339 26.4596 67.5241ZM49.1596 75.0957C47.1296 75.0566 45.1576 74.2734 43.2426 72.7481V72.7659C42.3966 72.0797 41.7226 71.405 41.2196 70.7454L41.1816 70.693C41.1486 70.6494 41.1166 70.6094 41.0846 70.573C40.6196 69.9054 40.3756 69.2432 40.3526 68.5863C40.3516 67.7303 40.5886 67.0148 41.0666 66.4459L41.0856 66.4281C41.4096 66.0628 41.8086 65.8681 42.2806 65.8459C42.4006 65.8441 42.4976 65.8441 42.5696 65.8459C42.6126 65.861 42.6576 65.8779 42.7046 65.8966C42.8556 65.965 43.0106 66.0219 43.1676 66.0681C44.1746 67.3312 45.5816 68.4619 47.3876 69.4601L47.4076 69.4761C49.6326 70.677 51.9836 71.4592 54.4606 71.8237C54.5216 71.9046 54.5926 71.9837 54.6726 72.0637L54.6536 72.0814C54.6286 72.8326 54.2686 73.4823 53.5736 74.0334C52.5536 74.7046 51.0956 75.0583 49.1996 75.0966L49.1596 75.0957Z" fill="black"/>
</svg>
