<svg width="90" height="100" viewBox="0 0 90 100" fill="none" xmlns="http://www.w3.org/2000/svg">
<path d="M4.33917 58.6773C5.66117 62.3466 8.98517 64.2569 14.3142 64.4071C14.4822 64.4124 14.6462 64.4026 14.8042 64.3777C15.2612 64.9937 15.8022 65.5866 16.4292 66.1582C18.7692 68.3102 21.5192 69.3795 24.6812 69.3653C25.0012 69.3715 25.5112 69.3226 26.2062 69.2204C26.5582 69.1697 26.7822 69.1404 26.8802 69.1324C26.9432 69.1324 27.0012 69.1324 27.0602 69.1324C27.6242 70.0675 28.4172 71.0044 29.4392 71.9466L29.4552 71.9609C31.9142 74.2391 34.5882 75.3564 37.4782 75.3146C40.0012 75.3048 42.2102 74.6791 44.1052 73.4337C46.2852 72.0089 47.3352 70.352 47.2562 68.4613C47.2562 68.4293 47.2562 68.3946 47.2562 68.3591C50.0162 68.2773 52.5312 67.6213 54.8032 66.3911L54.8202 66.3751C57.8572 64.6817 59.3292 62.616 59.2332 60.1777C59.2512 59.336 59.0982 58.5253 58.7732 57.7413C61.4712 58.1911 64.2272 58.5786 67.0422 58.9084C72.8582 59.5866 76.8072 59.7804 78.8872 59.4915C78.8982 59.4862 78.9092 59.4809 78.9202 59.4764C81.6182 59.1049 83.6912 57.768 85.1382 55.4666L85.1212 55.4809C86.6472 53.2142 86.6152 50.6533 85.0222 47.7955C83.7352 44.984 79.5682 43.3457 72.5212 42.8817C72.4392 42.8755 72.3562 42.8711 72.2752 42.8666C77.1992 41.5164 80.1962 39.8186 81.2652 37.7777L81.2822 37.7626C83.0022 34.9191 83.2362 32.6293 81.9882 30.8951C80.9712 29.216 79.4462 28.0604 77.4112 27.424H77.4432C75.7102 26.8497 73.7372 26.5973 71.5202 26.6657H71.4872C69.4742 26.6817 65.4492 27.6106 59.4142 29.4497C54.6882 30.888 50.7672 32.288 47.6502 33.6506C46.8732 32.4106 45.7892 31.1484 44.4022 29.8595C40.8732 26.584 36.9902 24.9671 32.7542 25.0026C29.7582 24.9324 26.3522 26.2702 22.5332 29.0133C20.2712 30.5742 18.3812 32.9795 16.8552 36.2311C15.9352 35.8053 15.0112 35.6106 14.0842 35.648C10.6972 35.5324 7.97317 37.3155 5.91417 41C4.51417 43.5271 3.60017 46.3084 3.17417 49.3422C2.73617 52.4435 3.12417 55.5546 4.33917 58.6773ZM37.5272 66.4195H37.5452C39.0782 67.1333 40.6862 67.6524 42.3672 67.9813C42.4592 68.1484 42.5782 68.3102 42.7282 68.4622C42.6502 69.0977 42.2122 69.6755 41.4152 70.1982C40.2902 70.9351 38.9792 71.2986 37.4772 71.2915C35.7802 71.2497 34.1942 70.5448 32.7192 69.176L32.7042 69.1626C31.3412 67.9066 30.6242 66.6817 30.5542 65.4862C30.5542 64.7697 30.7552 64.1626 31.1612 63.6631L31.1772 63.6489C31.4542 63.352 31.7922 63.1973 32.1952 63.1831C32.3832 63.1822 32.5082 63.1822 32.5722 63.1831C32.5922 63.1866 32.6072 63.192 32.6232 63.1982H32.5572C32.8132 63.3102 33.0712 63.3786 33.3282 63.4017C34.2752 64.5431 35.6752 65.5484 37.5272 66.4195ZM9.98217 42.7822C11.0742 40.8231 12.4412 39.7875 14.0842 39.6746C14.4842 39.7226 14.8952 39.888 15.3142 40.1706C14.9822 41.1928 14.6752 42.2729 14.3942 43.4088C14.2632 43.9493 14.3672 44.4551 14.7072 44.9253C15.0432 45.3964 15.5142 45.6933 16.1172 45.8151C16.7262 45.9324 17.2972 45.84 17.8242 45.5386C18.3532 45.24 18.6872 44.8213 18.8262 44.2835C20.2792 38.3857 22.4672 34.3369 25.3872 32.1369C28.1762 30.1351 30.6312 29.0995 32.7542 29.0293C35.7792 29.0702 38.5682 30.2755 41.1212 32.6462V32.6311C42.7402 34.136 43.8282 35.5902 44.3852 36.9911C44.3912 37.0062 44.3972 37.0204 44.4032 37.0346C44.5732 37.5751 44.6632 38.1146 44.6652 38.6533C44.6652 39.5795 44.4402 40.3368 43.9932 40.9288C43.6002 41.3804 43.0462 41.5946 42.3352 41.5697C41.2632 41.5457 40.2842 41.1466 39.3992 40.3751C37.9582 39.1057 36.9032 38.192 36.2332 37.6328C36.1432 37.4266 36.0042 37.2311 35.8232 37.0488C35.4342 36.6657 34.9522 36.448 34.3802 36.3928C33.8022 36.336 33.2762 36.4577 32.8042 36.7573C32.3352 37.0631 32.0402 37.4666 31.9192 37.968C31.6792 38.6782 31.8002 39.6604 32.2782 40.9129C32.2922 40.9262 32.3012 40.9413 32.3112 40.9573C32.5532 41.5422 32.6902 41.9697 32.7212 42.24C32.6802 43.4933 32.0902 44.7911 30.9502 46.1342C29.9012 47.3626 28.8072 48.0808 27.6692 48.2924C27.0582 48.3724 26.5642 48.6346 26.1922 49.08C25.8112 49.5289 25.6652 50.0302 25.7492 50.5822C25.8392 51.1253 26.1342 51.5635 26.6362 51.8951C27.1422 52.232 27.7042 52.3635 28.3252 52.288C30.5552 52.072 32.6342 50.8266 34.5592 48.5546C35.8992 46.9804 36.7412 45.4337 37.0842 43.9173C38.6802 45.056 40.4302 45.6151 42.3342 45.5946C44.5902 45.5751 46.3512 44.8266 47.6172 43.3493L47.6352 43.32C48.6732 42.1235 49.1942 40.5671 49.1942 38.6533C49.1952 38.2755 49.1732 37.896 49.1292 37.5164C52.1732 36.1457 56.0942 34.7315 60.8922 33.2729C66.2852 31.624 69.8612 30.7635 71.6212 30.6906H71.6532C73.2312 30.6444 74.6362 30.8195 75.8702 31.216H75.9032C76.8412 31.5128 77.5482 32.0488 78.0182 32.8204C78.3052 33.5688 78.0582 34.584 77.2812 35.8684L77.2982 35.8551C76.1292 37.4168 72.8592 38.7484 67.4872 39.8497L67.5042 39.8355C61.1622 41.1128 55.1852 42.5262 49.5712 44.0791C49.0122 44.2355 48.5862 44.5422 48.2922 44.9973C47.9922 45.4524 47.9052 45.9342 48.0292 46.4408C48.1632 46.9493 48.4742 47.352 48.9662 47.6524C49.4472 47.9555 49.9782 48.072 50.5572 48.0017C59.2252 46.9173 66.4392 46.5537 72.1962 46.9084C76.9722 47.2222 79.8922 48.112 80.9582 49.5768C81.7712 51.0382 81.8492 52.3431 81.1872 53.5004L81.1702 53.5146C80.4742 54.6364 79.4832 55.3022 78.2012 55.5129L78.2332 55.4969C76.3772 55.7137 72.8432 55.5191 67.6352 54.9146C62.2572 54.2862 57.0952 53.4417 52.1492 52.3777C51.6892 52.2435 51.2082 52.1413 50.7042 52.0711C50.6632 52.0648 50.6262 52.0604 50.5912 52.056C50.3892 52.0373 50.1752 52.0168 49.9502 51.9982C49.3302 51.9404 48.7762 52.0862 48.2932 52.4355C47.8102 52.7875 47.5352 53.2409 47.4742 53.792C47.4092 54.3422 47.5732 54.8337 47.9652 55.2631C48.3632 55.6942 48.8722 55.9368 49.4912 55.9928C49.6622 56.0088 49.8262 56.024 49.9832 56.0373C50.0212 56.0435 50.0592 56.048 50.0982 56.0524C50.2802 56.0835 50.4602 56.1217 50.6392 56.1688C50.6892 56.1884 50.7432 56.208 50.8032 56.2266C51.6132 56.4764 52.3832 56.8906 53.1162 57.4666L53.1332 57.4817C54.1382 58.3031 54.6622 59.2026 54.7082 60.1795C54.6132 61.24 53.8542 62.168 52.4272 62.9653L52.4452 62.9502C50.7202 63.888 48.7962 64.3537 46.6702 64.3502C44.1392 64.3546 41.7972 63.8586 39.6492 62.8622H39.6652C37.5992 61.8906 36.5112 60.6649 36.4012 59.1875C36.3832 58.6311 36.6372 58.2275 37.1552 57.976L37.1392 57.992C37.8992 57.6613 38.8892 57.496 40.1082 57.496C40.5302 57.5413 41.4172 57.7937 42.7662 58.2542C42.7822 58.2595 42.7972 58.2657 42.8152 58.2684C44.1262 58.7475 44.9192 59.0631 45.1942 59.216C45.6692 59.5831 46.2152 59.7484 46.8352 59.712C47.4552 59.6702 47.9692 59.4364 48.3772 59.0133C48.7912 58.592 48.9762 58.1057 48.9362 57.5546C48.8862 57.0044 48.6232 56.5475 48.1482 56.184C47.7722 55.8337 46.5462 55.28 44.4722 54.5217C44.4542 54.5173 44.4392 54.5129 44.4232 54.5066C42.2552 53.768 40.8182 53.424 40.1092 53.4711C38.0042 53.4693 36.3022 53.7902 35.0072 54.4337L34.9892 54.4488C32.9342 55.4373 31.8972 57.008 31.8722 59.1582C30.1982 59.2231 28.7922 59.8809 27.6572 61.1271L27.6392 61.1431C26.6332 62.2435 26.0982 63.5902 26.0322 65.1813C25.8702 65.2 25.6842 65.2248 25.4732 65.2542H25.4572C25.1032 65.3075 24.8462 65.3368 24.6862 65.3422C22.7742 65.3288 21.1062 64.6675 19.6822 63.36C18.3072 62.1084 17.5692 60.6889 17.4692 59.1022C17.4382 58.5457 17.1922 58.0808 16.7292 57.7022C16.2682 57.3253 15.7252 57.1511 15.1062 57.1768C14.4812 57.2026 13.9562 57.4213 13.5322 57.832C13.1082 58.2426 12.9112 58.7235 12.9402 59.2755C12.9562 59.6124 12.9892 59.9431 13.0382 60.2684C10.8062 59.9449 9.32917 58.9769 8.61017 57.3662C7.63517 54.848 7.32517 52.3413 7.67217 49.8417C8.03117 47.2737 8.80217 44.9208 9.98217 42.7822Z" fill="black"/>
</svg>
